<svg id="Glyph" xmlns="http://www.w3.org/2000/svg" viewBox="0 0 64 64">
<defs>
<style>
      .cls-1 {
        fill: #000111;
      }
    </style>
</defs>
<path class="cls-1" d="M57.1167,22.86133c0,.55273,.44775,1,1,1s1-.44727,1-1c0-3.95996-1.58936-7.69238-4.35986-10.23926-3.4751-3.19336-8.25488-4.93359-14.20654-5.17188-.27197-.01855-.53662,.08984-.73291,.27832s-.30713,.44824-.30713,.7207V43.40027c-.00006-.00012-.00018-.00018-.00024-.00031-1.95001-2.12-5.14001-3.5-8.75-3.5-5.91998,0-10.73999,3.74005-10.73999,8.33002s4.82001,8.32001,10.73999,8.32001c5.92999,0,10.75-3.72998,10.75-8.32001,0-.15002,.00024-38.72314,.00024-38.72314,4.97949,.36719,8.97656,1.9082,11.89307,4.58789,2.35986,2.16895,3.71338,5.36426,3.71338,8.7666Z" id="id_101" style="fill: rgb(194, 27, 77);"></path>
<path class="cls-1" d="M4.1167,12.11035H30.7627c.55225,0,1-.44727,1-1s-.44775-1-1-1H4.1167c-.55225,0-1,.44727-1,1s.44775,1,1,1Z" id="id_102" style="fill: rgb(194, 27, 177);"></path>
<path class="cls-1" d="M4.1167,24.29883H30.7627c.55225,0,1-.44727,1-1s-.44775-1-1-1H4.1167c-.55225,0-1,.44727-1,1s.44775,1,1,1Z" id="id_103" style="fill: rgb(194, 29, 177);"></path>
<path class="cls-1" d="M19.5415,36.4873c.55225,0,1-.44727,1-1s-.44775-1-1-1H4.1167c-.55225,0-1,.44727-1,1s.44775,1,1,1h15.4248Z" id="id_104" style="fill: rgb(191, 31, 175);"></path>
</svg>