<svg width="64" height="64" viewBox="0 0 64 64" fill="none" xmlns="http://www.w3.org/2000/svg">
<path d="M52.35 33.0001C52.0185 33.0001 51.7005 33.1318 51.4661 33.3662C51.2317 33.6006 51.1 33.9186 51.1 34.2501V54.0001C51.1 54.4642 50.9156 54.9093 50.5874 55.2375C50.2592 55.5657 49.8141 55.7501 49.35 55.7501H10C9.53587 55.7501 9.09075 55.5657 8.76256 55.2375C8.43437 54.9093 8.25 54.4642 8.25 54.0001V14.6001C8.25263 14.1368 8.43784 13.6932 8.76546 13.3656C9.09309 13.0379 9.53668 12.8527 10 12.8501H29.67C30.0015 12.8501 30.3195 12.7184 30.5539 12.484C30.7883 12.2496 30.92 11.9316 30.92 11.6001C30.92 11.2686 30.7883 10.9506 30.5539 10.7162C30.3195 10.4818 30.0015 10.3501 29.67 10.3501H10C8.87364 10.3527 7.79417 10.8014 6.99771 11.5978C6.20126 12.3943 5.75264 13.4737 5.75 14.6001V54.0001C5.76316 55.1186 6.21673 56.1868 7.01234 56.973C7.80794 57.7593 8.88144 58.2002 10 58.2001H49.35C50.4686 58.2002 51.5421 57.7593 52.3377 56.973C53.1333 56.1868 53.5868 55.1186 53.6 54.0001V34.2801C53.604 34.1134 53.5746 33.9477 53.5136 33.7925C53.4526 33.6374 53.3611 33.496 53.2447 33.3768C53.1282 33.2575 52.989 33.1627 52.8354 33.098C52.6817 33.0333 52.5167 33 52.35 33.0001V33.0001Z" fill="#d6087d" id="id_101"></path>
<path d="M58.2499 7.00005C58.2449 6.73964 58.1574 6.48753 57.9999 6.28005V6.28005L57.8299 6.10005C57.5999 5.90082 57.3041 5.79394 56.9999 5.80005H38.3999C38.0684 5.80005 37.7504 5.93175 37.516 6.16617C37.2816 6.40059 37.1499 6.71853 37.1499 7.05005C37.1499 7.38157 37.2816 7.69952 37.516 7.93394C37.7504 8.16836 38.0684 8.30005 38.3999 8.30005H53.9999L30.6299 31.6501C30.458 31.8261 30.3414 32.0487 30.2945 32.2903C30.2477 32.5318 30.2726 32.7818 30.3662 33.0094C30.4598 33.237 30.6179 33.4322 30.8212 33.5709C31.0244 33.7097 31.2638 33.7858 31.5099 33.7901C31.8432 33.7863 32.1622 33.6537 32.3999 33.4201L55.7499 10.0601V25.6501C55.7499 25.9816 55.8816 26.2995 56.116 26.5339C56.3504 26.7684 56.6684 26.9001 56.9999 26.9001C57.3314 26.9001 57.6494 26.7684 57.8838 26.5339C58.1182 26.2995 58.2499 25.9816 58.2499 25.6501V7.00005Z" fill="#0adaff" id="id_102"></path>
</svg>