<svg xmlns="http://www.w3.org/2000/svg" width="24" height="24" viewBox="0 0 24 24">
<path fill-rule="evenodd" d="M18.4265377,4.18076808 L8.42653766,11.1807681 C7.85782078,11.5788699 7.85782078,12.4211301 8.42653766,12.8192319 L18.4265377,19.8192319 C19.0893151,20.2831762 20,19.809023 20,19 L20,5 C20,4.19097699 19.0893151,3.71682385 18.4265377,4.18076808 Z M5,4 C4.44771525,4 4,4.44771525 4,5 L4,19 C4,19.5522847 4.44771525,20 5,20 C5.55228475,20 6,19.5522847 6,19 L6,5 C6,4.44771525 5.55228475,4 5,4 Z M18,6.92065556 L18,17.0793444 L10.7437937,12 L18,6.92065556 Z" id="id_101" style="fill: rgb(214, 26, 133);"></path>
</svg>