<svg id="Layer_1" data-name="Layer 1" xmlns="http://www.w3.org/2000/svg" viewBox="0 0 512 512"><title>Love</title><path d="M256,490.67a21.31,21.31,0,0,1-15.09-6.25l-174-174A144.36,144.36,0,0,1,256,93.13a144.27,144.27,0,0,1,189.07,13.15L430,121.37l15.09-15.09a144.25,144.25,0,0,1,0,204.15l-174,174A21.27,21.27,0,0,1,256,490.67Zm-87-384A101.65,101.65,0,0,0,97.1,280.26L256,439.16l158.9-158.9a101.7,101.7,0,0,0,0-143.81h0a101.8,101.8,0,0,0-143.81,0,21.34,21.34,0,0,1-30.17,0A101.42,101.42,0,0,0,169,106.71Z" id="id_101" style="fill: rgb(186, 15, 160);"></path></svg>