<svg id="Layer_1" data-name="Layer 1" xmlns="http://www.w3.org/2000/svg" xmlns:xlink="http://www.w3.org/1999/xlink" viewBox="0 0 48 48"><defs><style>.cls-1{fill:url(#linear-gradient);}.cls-2{fill:url(#linear-gradient-2);}.cls-3{fill:url(#linear-gradient-3);}.cls-4{fill:url(#linear-gradient-4);}.cls-5{fill:url(#linear-gradient-5);}.cls-6{fill:url(#linear-gradient-6);}.cls-7{fill:url(#linear-gradient-7);}.cls-8{fill:url(#linear-gradient-8);}.cls-9{fill:url(#linear-gradient-9);}.cls-10{fill:url(#linear-gradient-10);}.cls-11{fill:url(#linear-gradient-11);}</style><linearGradient id="linear-gradient" x1="5.617" y1="23.062" x2="27.977" y2="32.006" gradientUnits="userSpaceOnUse"><stop offset="0" stop-color="#f1d2bd" id="id_112"></stop><stop offset="1" stop-color="#feb592" id="id_113"></stop></linearGradient><linearGradient id="linear-gradient-2" x1="2.544" y1="37.216" x2="15.272" y2="37.216" xlink:href="#linear-gradient"></linearGradient><linearGradient id="linear-gradient-3" x1="16.773" y1="10" x2="11.218" y2="10" gradientUnits="userSpaceOnUse"><stop offset="0" stop-color="#095251" id="id_114"></stop><stop offset="1" stop-color="#12807b" id="id_115"></stop></linearGradient><linearGradient id="linear-gradient-4" x1="19.545" y1="16.455" x2="8.885" y2="27.115" gradientUnits="userSpaceOnUse"><stop offset="0" stop-color="#062e2c" id="id_116"></stop><stop offset="1" stop-color="#081f1e" id="id_117"></stop></linearGradient><linearGradient id="linear-gradient-5" x1="17.217" y1="18.783" x2="11.178" y2="24.822" xlink:href="#linear-gradient-3"></linearGradient><linearGradient id="linear-gradient-6" x1="15.254" y1="20.746" x2="12.836" y2="23.164" xlink:href="#linear-gradient-4"></linearGradient><linearGradient id="linear-gradient-7" x1="31.742" y1="27.695" x2="39.242" y2="39.266" gradientUnits="userSpaceOnUse"><stop offset="0" stop-color="#6e6b2c" id="id_118"></stop><stop offset="1" stop-color="#1deb8e" id="id_119"></stop></linearGradient><linearGradient id="linear-gradient-8" x1="29.383" y1="29.224" x2="36.883" y2="40.796" xlink:href="#linear-gradient-7"></linearGradient><linearGradient id="linear-gradient-9" x1="25.909" y1="31.475" x2="33.409" y2="43.047" xlink:href="#linear-gradient-7"></linearGradient><linearGradient id="linear-gradient-10" x1="45.345" y1="39.5" x2="41.854" y2="39.5" xlink:href="#linear-gradient-3"></linearGradient><linearGradient id="linear-gradient-11" x1="47.929" y1="25.891" x2="40.156" y2="32.225" gradientUnits="userSpaceOnUse"><stop offset="0" stop-color="#0af5e9" id="id_120"></stop><stop offset="1" stop-color="#1bb570" id="id_121"></stop></linearGradient></defs><path class="cls-1" d="M31.745,26.7l-1.823-3.246a1.057,1.057,0,0,1-.081-.779,14.887,14.887,0,0,0,.328-5.692A15.159,15.159,0,0,0,16.743,4.081a15.321,15.321,0,0,0-11.8,3.84A14.863,14.863,0,0,0,1.854,26.173,14.777,14.777,0,0,1,3.574,36.24L2.037,44.824A1,1,0,0,0,3.021,46H15a1,1,0,0,0,.993-.879l.72-5.9c.161.058.318.113.473.164l2.681.884a5.976,5.976,0,0,0,1.988.328,6.146,6.146,0,0,0,5.963-4.64l1.349-5.341L31.1,29.346A2,2,0,0,0,31.745,26.7Z" id="id_101"></path><path class="cls-2" d="M2.885,28.432h0a14.31,14.31,0,0,1,.689,7.808L2.037,44.824A1,1,0,0,0,3.021,46H15a1,1,0,0,0,.993-.879l.72-5.9C9,37,2.885,28.431,2.885,28.432Z" id="id_102"></path><rect class="cls-3" x="11" y="2" width="6" height="16" rx="2" id="id_103"></rect><circle class="cls-4" cx="14" cy="22" r="8" id="id_104"></circle><circle class="cls-5" cx="14" cy="22" r="5" id="id_105"></circle><circle class="cls-6" cx="14" cy="22" r="2" id="id_106"></circle><path class="cls-7" d="M35.817,30.212l-3.559.448a1,1,0,0,0,.123,1.992,1.093,1.093,0,0,0,.127-.007l3.559-.448a1,1,0,1,0-.25-1.985Z" id="id_107"></path><path class="cls-8" d="M35.753,35.583l-3.384-1.192a1,1,0,0,0-.664,1.887l3.384,1.191a.991.991,0,0,0,.332.057,1,1,0,0,0,.332-1.943Z" id="id_108"></path><path class="cls-9" d="M30.719,37.726a1,1,0,1,0-1.438,1.39L31.775,41.7a1,1,0,0,0,1.438-1.39Z" id="id_109"></path><rect class="cls-10" x="42" y="33" width="3" height="13" rx="1.5" id="id_110"></rect><rect class="cls-11" x="39" y="22" width="9" height="15" rx="4.5" id="id_111"></rect></svg>