<svg version="1.1" id="Layer_1" xmlns="http://www.w3.org/2000/svg" xmlns:xlink="http://www.w3.org/1999/xlink" x="0px" y="0px" viewBox="0 0 32 32" style="enable-background:new 0 0 32 32;" xml:space="preserve">
<path d="M25.5,15.5l0.4-0.4c2-2,2-5.1,0-7.1s-5.1-2-7.1,0l0,0l-0.4,0.4c-0.8-0.1-1.6,0.2-2.1,0.7c-0.6,0.6-0.8,1.4-0.7,2.2L5.4,23
	c-0.3,0.4-0.3,1,0,1.4l1.4,1.4l-0.7,0.7c-0.4,0.4-0.4,1,0,1.4c0.4,0.4,1,0.4,1.4,0l0.7-0.7l1.4,1.4c0.4,0.4,1,0.4,1.4,0l11.7-10.3
	c0.8,0.1,1.6-0.1,2.1-0.7C25.4,17.1,25.6,16.3,25.5,15.5z M14.6,20.8c-0.4,0.4-1,0.4-1.4,0c-0.4-0.4-0.4-1,0-1.4l2.1-2.1
	c0.4-0.4,1-0.4,1.4,0c0.4,0.4,0.4,1,0,1.4L14.6,20.8z M22.7,16.2l-5-4.9c-0.2-0.2-0.2-0.5,0-0.7c0.2-0.2,0.5-0.2,0.7,0c0,0,0,0,0,0
	l5,4.9c0.2,0.2,0.2,0.5,0,0.7C23.2,16.4,22.9,16.4,22.7,16.2z" id="id_101" style="fill: rgb(230, 25, 117);"></path>
<path d="M13,5.1l-1.1-0.4c-0.7-0.2-1.2-0.9-1.2-1.7c0-0.6-0.4-1-1-1s-1,0.4-1,1v7.1c-0.5-0.2-1-0.3-1.5-0.3c-2,0-3.5,1.2-3.5,2.7
	s1.5,2.7,3.5,2.7s3.5-1.2,3.5-2.7V6.4c0.2,0.1,0.4,0.2,0.6,0.3l0.4,0.1v0.3c0,0.6,0.4,1,1,1s1-0.4,1-1v-1C13.7,5.7,13.5,5.3,13,5.1z
	" id="id_102" style="fill: rgb(224, 13, 90);"></path>
</svg>