<svg xmlns="http://www.w3.org/2000/svg" viewBox="0 0 42.67 64"><defs><style>.cls-1{fill:#35353d;}</style></defs><title>Asset 71</title><g id="Layer_2" data-name="Layer 2"><g id="Layer_1-2" data-name="Layer 1"><path class="cls-1" d="M40,21.33A2.68,2.68,0,0,0,37.33,24v5.33a16,16,0,0,1-32,0V24A2.67,2.67,0,1,0,0,24v5.33A21.35,21.35,0,0,0,18.67,50.48V61.33a2.67,2.67,0,1,0,5.33,0V50.48A21.35,21.35,0,0,0,42.67,29.33V24A2.68,2.68,0,0,0,40,21.33Z" id="id_101" style="fill: rgb(25, 240, 14);"></path><path class="cls-1" d="M21.33,40A10.68,10.68,0,0,0,32,29.33V10.67a10.67,10.67,0,1,0-21.33,0V29.33A10.68,10.68,0,0,0,21.33,40ZM16,10.67a5.34,5.34,0,1,1,10.67,0V29.33a5.34,5.34,0,1,1-10.67,0Z" id="id_102" style="fill: rgb(27, 214, 17);"></path></g></g></svg>