<svg xmlns:rdf="http://www.w3.org/1999/02/22-rdf-syntax-ns#" xmlns="http://www.w3.org/2000/svg" height="24" width="24" version="1.1" xmlns:cc="http://creativecommons.org/ns#" xmlns:dc="http://purl.org/dc/elements/1.1/">
<g transform="translate(0 -1028.4)">
<path d="m22 12c0 5.523-4.477 10-10 10-5.5228 0-10-4.477-10-10 0-5.5228 4.4772-10 10-10 5.523 0 10 4.4772 10 10z" transform="translate(0 1029.4)" fill="#db1c5c" id="id_101" data-darkreader-inline-fill="" style="--darkreader-inline-fill: #e63872;"></path>
<path d="m22 12c0 5.523-4.477 10-10 10-5.5228 0-10-4.477-10-10 0-5.5228 4.4772-10 10-10 5.523 0 10 4.4772 10 10z" transform="translate(0 1028.4)" fill="#e01458" id="id_102" data-darkreader-inline-fill="" style="--darkreader-inline-fill: #ed3371;"></path>
<path d="m6.0001 1042.4h4.9999v5h2v-5h5v-2h-5v-5h-2v5h-4.9999v2z" fill="#52313c" id="id_103" data-darkreader-inline-fill="" style="--darkreader-inline-fill: #caa6b2;"></path>
<path d="m6 1041.4h5v5h2v-5h5v-2h-5v-5h-2v5h-5v2z" fill="#ffffff" id="id_104" data-darkreader-inline-fill="" style="--darkreader-inline-fill: #e8e6e3;"></path>
</g>
</svg>